HIERARCHY
ROOT Hips
{
	OFFSET 0.000000 0.000000 0.000000
	CHANNELS 6 Xposition Yposition Zposition Xrotation Yrotation Zrotation
	JOINT Spine
	{
		OFFSET 0.000000 0.049001 0.073502
		CHANNELS 3 Xrotation Yrotation Zrotation
		JOINT Spine1
		{
			OFFSET 0.000000 0.017018 0.096514
			CHANNELS 3 Xrotation Yrotation Zrotation
			JOINT Spine2
			{
				OFFSET 0.000000 0.008542 0.097630
				CHANNELS 3 Xrotation Yrotation Zrotation
				JOINT Spine3
				{
					OFFSET 0.000000 0.000000 0.098003
					CHANNELS 3 Xrotation Yrotation Zrotation
					JOINT Neck
					{
						OFFSET 0.000000 -0.036751 0.257258
						CHANNELS 3 Xrotation Yrotation Zrotation
						JOINT Head
						{
							OFFSET 0.000000 -0.023400 0.132707
							CHANNELS 3 Xrotation Yrotation Zrotation
							End Site
							{
								OFFSET 0.000000 0.000000 0.000000
							}
						}
					}
					JOINT RightShoulder
					{
						OFFSET -0.030410 -0.050683 0.164214
						CHANNELS 3 Xrotation Yrotation Zrotation
						JOINT RightArm
						{
							OFFSET -0.151036 0.000000 0.000000
							CHANNELS 3 Xrotation Yrotation Zrotation
							JOINT RightForeArm
							{
								OFFSET -0.279942 0.000000 0.000000
								CHANNELS 3 Xrotation Yrotation Zrotation
								JOINT RightHand
								{
									OFFSET -0.265034 0.000000 0.000000
									CHANNELS 3 Xrotation Yrotation Zrotation
									JOINT RightHandEnd
									{
										OFFSET -0.071866 0.000000 0.000000
										CHANNELS 3 Xrotation Yrotation Zrotation
										End Site
										{
											OFFSET 0.000000 0.000000 0.000000
										}
									}
									JOINT RightHandThumb1
									{
										OFFSET -0.028746 -0.047911 -0.019164
										CHANNELS 3 Xrotation Yrotation Zrotation
										End Site
										{
											OFFSET 0.000000 0.000000 0.000000
										}
									}
								}
							}
						}
					}
					JOINT LeftShoulder
					{
						OFFSET 0.030410 -0.050683 0.164214
						CHANNELS 3 Xrotation Yrotation Zrotation
						JOINT LeftArm
						{
							OFFSET 0.151036 0.000000 0.000000
							CHANNELS 3 Xrotation Yrotation Zrotation
							JOINT LeftForeArm
							{
								OFFSET 0.279942 0.000000 0.000000
								CHANNELS 3 Xrotation Yrotation Zrotation
								JOINT LeftHand
								{
									OFFSET 0.265034 0.000000 0.000000
									CHANNELS 3 Xrotation Yrotation Zrotation
									JOINT LeftHandEnd
									{
										OFFSET 0.071866 0.000000 0.000000
										CHANNELS 3 Xrotation Yrotation Zrotation
										End Site
										{
											OFFSET 0.000000 0.000000 0.000000
										}
									}
									JOINT LeftHandThumb1
									{
										OFFSET 0.028746 -0.047911 -0.019164
										CHANNELS 3 Xrotation Yrotation Zrotation
										End Site
										{
											OFFSET 0.000000 0.000000 0.000000
										}
									}
								}
							}
						}
					}
				}
			}
		}
	}
	JOINT RightUpLeg
	{
		OFFSET -0.090216 0.000000 -0.026355
		CHANNELS 3 Xrotation Yrotation Zrotation
		JOINT RightLeg
		{
			OFFSET 0.000000 0.000000 -0.402871
			CHANNELS 3 Xrotation Yrotation Zrotation
			JOINT RightFoot
			{
				OFFSET 0.000000 0.000000 -0.414145
				CHANNELS 3 Xrotation Yrotation Zrotation
				JOINT RightToeBase
				{
					OFFSET 0.000000 -0.146359 -0.053270
					CHANNELS 3 Xrotation Yrotation Zrotation
					End Site
					{
						OFFSET 0.000000 0.000000 0.000000
					}
				}
			}
		}
	}
	JOINT LeftUpLeg
	{
		OFFSET 0.090216 0.000000 -0.026355
		CHANNELS 3 Xrotation Yrotation Zrotation
		JOINT LeftLeg
		{
			OFFSET 0.000000 0.000000 -0.402871
			CHANNELS 3 Xrotation Yrotation Zrotation
			JOINT LeftFoot
			{
				OFFSET 0.000000 0.000000 -0.414145
				CHANNELS 3 Xrotation Yrotation Zrotation
				JOINT LeftToeBase
				{
					OFFSET 0.000000 -0.146359 -0.053270
					CHANNELS 3 Xrotation Yrotation Zrotation
					End Site
					{
						OFFSET 0.000000 0.000000 0.000000
					}
				}
			}
		}
	}
}
MOTION
Frames: 6
Frame Time: 0.033333
0.175240 -0.437568 0.904527 5.858000 2.408500 -86.725200 0.237900 -5.943900 0.050200 -1.465200 -1.032100 -0.255200 9.163900 -2.702400 -0.819100 3.733100 -0.539200 0.604700 10.568300 3.020900 -0.016500 7.125600 4.034000 0.417100 14.785400 -3.168200 6.094600 -16.173200 -63.542000 2.982900 0.000000 0.000100 101.515100 -37.068400 33.146100 13.597700 0.000000 0.000000 0.000000 0.000000 0.000000 0.000000 17.386900 2.437800 0.541700 46.432300 44.645100 -60.761900 -0.000100 -0.000100 -97.363900 -7.670400 -21.013300 4.058700 0.000000 0.000000 0.000000 0.000000 0.000000 0.000000 -14.182200 0.002100 -30.978600 15.264200 0.000000 0.000000 8.602700 5.974000 -4.445800 -6.025900 0.000000 0.000000 -11.024900 -9.187900 0.923600 51.047600 0.000000 0.000000 -4.788600 5.492800 2.351700 -32.763500 0.000000 0.000000 
0.198018 -0.453550 0.903788 3.369200 1.199400 -89.261800 0.126000 -3.630500 0.171100 -1.713600 -0.808800 -0.221900 9.707900 -2.633300 -0.648600 3.710800 -0.576000 0.607700 9.790800 3.226400 0.607500 6.229600 4.181800 0.996400 15.023900 -3.567100 6.552000 -7.644300 -63.073900 10.505800 0.000000 0.000100 98.575600 -37.822600 33.281900 13.373500 0.000000 0.000000 0.000000 0.000000 0.000000 0.000000 17.461600 2.852200 0.626300 46.256400 48.305300 -58.248400 -0.000100 -0.000100 -96.025900 -6.294800 -20.319600 5.995900 0.000000 0.000000 0.000000 0.000000 0.000000 0.000000 -17.377100 3.141300 -27.740700 15.599800 0.000000 0.000000 10.541600 4.033300 -4.734900 -7.266900 0.000000 0.000000 -6.479000 -6.166000 5.155000 41.379700 0.000000 0.000000 -8.526800 2.564100 -0.754900 -28.892500 0.000000 0.000000 
0.223967 -0.471978 0.903155 -0.293600 0.268100 -92.095600 0.460000 -0.667300 0.351600 -1.688300 -0.243000 -0.128000 10.001700 -2.343300 -0.291600 3.584900 -0.646400 0.698000 8.668400 3.510900 1.228900 4.909200 4.178200 1.704600 15.053000 -3.861300 7.236300 -1.553100 -62.651400 16.575600 0.000000 0.000100 96.922300 -37.413100 33.783100 12.234600 0.000000 0.000000 0.000000 0.000000 0.000000 0.000000 17.310300 2.593200 0.399200 45.277600 51.419000 -56.221500 -0.000100 -0.000100 -95.185800 -7.150200 -19.517800 7.140200 0.000000 0.000000 0.000000 0.000000 0.000000 0.000000 -21.789300 7.325200 -22.299100 17.578900 0.000000 0.000000 11.016000 0.811800 -6.020300 -13.655400 0.000000 0.000000 -3.351800 -1.427700 11.869100 32.176800 0.000000 0.000000 -11.738700 -0.030600 -3.293700 -22.299300 0.000000 0.000000 
0.251902 -0.490708 0.901929 -4.316400 -0.639200 -94.141500 0.843400 2.264700 0.310300 -1.495400 0.461700 -0.013500 9.930200 -1.825100 -0.065700 3.403800 -0.652100 0.701800 7.331900 3.779100 1.720200 3.432000 4.166200 2.425700 14.990900 -3.829800 7.830000 2.705300 -63.018800 21.394100 0.000000 0.000100 96.404400 -35.440800 34.256600 10.091000 0.000000 0.000000 0.000000 0.000000 0.000000 0.000000 17.003500 1.894900 -0.331800 42.910700 53.016800 -53.678200 -0.000100 -0.000100 -94.885000 -10.432000 -19.320800 7.433500 0.000000 0.000000 0.000000 0.000000 0.000000 0.000000 -27.490600 11.635900 -16.258600 21.497600 0.000000 0.000000 9.573600 -1.875500 -8.217600 -22.639900 0.000000 0.000000 -2.626200 4.273600 16.641900 25.453400 0.000000 0.000000 -12.377500 -1.695700 -4.084400 -18.405700 0.000000 0.000000 
0.278569 -0.506938 0.901370 -7.532300 -1.272300 -95.011600 1.320700 4.331100 0.025300 -1.197300 0.886000 0.045800 9.648600 -1.049000 -0.032600 3.255100 -0.495600 0.484900 6.237500 3.947200 2.062400 2.125700 4.266800 3.041600 15.015300 -3.626400 8.391800 5.991700 -63.939600 25.537300 0.000000 0.000100 96.247800 -33.017100 34.921100 7.767600 0.000000 0.000000 0.000000 0.000000 0.000000 0.000000 16.445000 1.516000 -1.541300 38.784300 52.412800 -49.677100 -0.000100 -0.000100 -94.925600 -14.229900 -19.771300 6.858500 0.000000 0.000000 0.000000 0.000000 0.000000 0.000000 -33.047600 14.686500 -10.524500 27.487800 0.000000 0.000000 7.453100 -2.651700 -12.173800 -28.686500 0.000000 0.000000 -3.390700 9.317700 16.162200 21.314800 0.000000 0.000000 -10.813400 -2.924800 -2.453100 -18.704000 0.000000 0.000000 
0.301328 -0.519044 0.902571 -9.161500 -1.443800 -95.563000 1.860700 5.043200 -0.228700 -0.850200 0.890700 0.046700 9.326300 -0.167500 0.269300 3.172700 -0.213800 0.161300 5.834500 4.211100 2.364900 1.331600 4.338100 3.400600 15.124900 -3.005500 8.991200 9.191400 -64.831600 29.495600 0.000000 0.000100 95.961600 -32.212500 36.284500 6.497900 0.000000 0.000000 0.000000 0.000000 0.000000 0.000000 15.564500 1.722400 -2.542900 34.636600 49.949100 -46.002700 -0.000100 -0.000100 -94.351700 -17.083300 -19.897300 6.270300 0.000000 0.000000 0.000000 0.000000 0.000000 0.000000 -37.328200 15.222200 -5.064300 35.853200 0.000000 0.000000 5.888600 -2.437300 -18.070800 -31.196400 0.000000 0.000000 -4.284000 12.501800 13.164300 18.658500 0.000000 0.000000 -8.459100 -4.724000 0.150100 -19.570200 0.000000 0.000000 
